<svg width="38" height="40" viewBox="0 0 38 40" fill="none" xmlns="http://www.w3.org/2000/svg">
<path d="M19.5741 39.8504C19.6367 39.5937 18.5812 36.7237 19.6029 35.6206C20.0362 35.2825 20.4193 34.8668 20.7298 34.3897C21.8843 32.6142 21.7892 30.3553 20.502 29.018C20.4669 28.9817 20.4268 28.9504 20.3905 28.9141L21.0191 18.4636L27.216 0.000610352L26.2644 1.22396L17.4993 18.1856L18.9618 19.7746L18.4059 27.9799C17.8962 27.9198 17.3628 27.9649 16.8281 28.1214C15.7701 28.4345 14.8347 29.147 14.1936 30.1324C13.0391 31.9079 13.1343 34.1668 14.4215 35.5054C14.6031 35.6907 14.8072 35.8597 15.0263 36.0012C15.5209 36.3243 16.0781 36.5046 16.6629 36.5509C18.1016 37.1945 18.1942 39.188 18.367 39.5987C18.5423 40.0144 19.5065 40.1208 19.5741 39.8504ZM19.0582 18.2094C18.8203 17.9602 18.8278 17.5658 19.0758 17.3266C19.3237 17.09 19.7181 17.0962 19.9573 17.3454C20.1952 17.5921 20.1877 17.9878 19.9397 18.2257C19.6906 18.4648 19.2961 18.4573 19.0582 18.2094ZM17.7597 35.2575C17.0072 35.4803 16.2672 35.3877 15.6749 35.0045C15.5309 34.9106 15.3982 34.8017 15.2792 34.6765C14.3714 33.7348 14.3351 32.0945 15.1903 30.7823C15.6762 30.0322 16.3774 29.4951 17.165 29.2622C17.9175 29.0393 18.6563 29.1307 19.2485 29.5138C19.3925 29.609 19.5253 29.7192 19.6442 29.8444C20.552 30.786 20.5871 32.4251 19.7331 33.7398C19.246 34.4861 18.5448 35.0271 17.7597 35.2575Z" fill="#F6F3E3"/>
<path d="M36.6935 11.0646L37.4561 10.3196L22.9987 14.9989L21.8781 18.3346L36.6935 11.0646Z" fill="#F6F3E3"/>
<path d="M17.7222 16.2498L8.50383 16.5904C8.41869 16.4764 8.32728 16.3662 8.22836 16.2635C6.94115 14.925 4.68727 14.7434 2.8704 15.8291C1.86117 16.4313 1.11238 17.3391 0.759271 18.3847C0.394895 19.4628 0.495067 20.5584 1.03975 21.4675C1.17373 21.6941 1.33401 21.9032 1.51557 22.0911C2.50101 23.1141 4.05118 23.4609 5.53874 23.079C5.58131 23.1604 5.63265 23.2405 5.70026 23.3107C6.08092 23.7051 6.7095 23.7176 7.10518 23.3382C7.41446 23.0402 7.48583 22.5907 7.3218 22.22C8.1044 21.6328 8.68665 20.8502 8.98466 19.9674C9.18876 19.3664 9.24135 18.7603 9.15871 18.1831L16.599 18.4198L17.7222 16.2498ZM7.85522 19.5905C7.59352 20.3681 7.02754 21.048 6.26123 21.5051C4.91516 22.3102 3.27985 22.2088 2.37204 21.2684C2.25309 21.1432 2.14791 21.0067 2.06026 20.8615C1.69713 20.2554 1.63578 19.5116 1.88621 18.7691C2.14791 17.9915 2.71388 17.3116 3.47895 16.8533C4.82501 16.0482 6.46157 16.1484 7.36813 17.0912C7.48709 17.2152 7.59227 17.3529 7.67992 17.4994C8.04554 18.1042 8.10565 18.848 7.85522 19.5905Z" fill="#F6F3E3"/>
</svg>
